<svg id="Layer_1" data-name="Layer 1" xmlns="http://www.w3.org/2000/svg" viewBox="0 0 150 150"><defs><style>.cls-1{fill:#eb5160;stroke-width:3px;}.cls-1,.cls-2,.cls-3{stroke:#3c3b5c;stroke-linecap:round;stroke-linejoin:round;}.cls-2{fill:none;}.cls-2,.cls-3{stroke-width:4px;}.cls-3{fill:#f7f7f5;}.cls-4{fill:#e5e5e5;}</style></defs><title>e2e_interiors</title><polygon class="cls-1" points="39.21 38.12 36.78 50.28 52.19 50.28 49.35 38.12 39.21 38.12"/><line class="cls-2" x1="44.49" y1="51.28" x2="44.49" y2="60.5"/><line class="cls-2" x1="41.45" y1="61.22" x2="47.41" y2="61.22"/><polygon class="cls-1" points="103.98 38.12 101.55 50.28 116.96 50.28 114.12 38.12 103.98 38.12"/><line class="cls-2" x1="109.26" y1="51.28" x2="109.26" y2="60.5"/><line class="cls-2" x1="106.22" y1="61.22" x2="112.18" y2="61.22"/><line class="cls-2" x1="37.87" y1="123.54" x2="41.78" y2="123.54"/><line class="cls-2" x1="111.21" y1="123.54" x2="115.12" y2="123.54"/><rect class="cls-3" x="30.55" y="84.98" width="92.41" height="26.86" rx="8.76" ry="8.76"/><rect class="cls-4" x="32.55" y="99.23" width="88.43" height="6.55"/><rect class="cls-3" x="26.13" y="103.85" width="101.29" height="16.63"/><rect class="cls-4" x="28.24" y="115.4" width="97.16" height="3.13"/><rect class="cls-2" x="65.45" y="26.14" width="23.28" height="41.17"/><polygon class="cls-4" points="67.44 28.22 67.44 65.38 77 28.22 67.44 28.22"/></svg>