<svg id="Layer_1" data-name="Layer 1" xmlns="http://www.w3.org/2000/svg" viewBox="0 0 150 150"><defs><style>.cls-1{fill:#f7f7f5;}.cls-1,.cls-2{stroke:#3c3b5c;stroke-linecap:round;stroke-linejoin:round;stroke-width:4px;}.cls-2{fill:none;}.cls-3{fill:#e5e5e5;}.cls-4{fill:#eb5160;}</style></defs><title>e2e_renovation</title><polygon class="cls-1" points="43.52 26.31 127.45 110.24 110.85 127.07 27.03 42.83 43.52 26.31"/><polygon class="cls-1" points="31.61 114.36 41.8 123.55 112.42 53.53 102.23 42.92 31.61 114.36"/><polygon class="cls-2" points="121.96 33.59 112.42 53.53 102.23 42.92 121.96 33.59"/><line class="cls-2" x1="116.19" y1="44.56" x2="111.1" y2="39.26"/><line class="cls-2" x1="52.99" y1="35.78" x2="47.37" y2="41.72"/><line class="cls-2" x1="62.47" y1="45.26" x2="56.86" y2="51.21"/><line class="cls-2" x1="72.07" y1="54.86" x2="66.45" y2="60.8"/><line class="cls-2" x1="100.5" y1="83.29" x2="94.89" y2="89.23"/><line class="cls-2" x1="109.99" y1="92.78" x2="104.37" y2="98.72"/><line class="cls-2" x1="119.59" y1="102.38" x2="113.97" y2="108.32"/><polygon class="cls-3" points="34.38 114.13 36.65 116.25 104.37 48.23 102.23 45.86 34.38 114.13"/><line class="cls-2" x1="45.27" y1="100.54" x2="55.32" y2="110.15"/><line class="cls-2" x1="40.35" y1="105.46" x2="50.4" y2="115.06"/><polygon class="cls-3" points="43.4 29.1 29.84 42.92 32.74 45.86 46.66 32.27 43.4 29.1"/><polygon class="cls-4" points="34.38 114.13 41.71 120.77 47.52 115.06 40.28 108.19 34.38 114.13"/></svg>