<svg id="Layer_1" data-name="Layer 1" xmlns="http://www.w3.org/2000/svg" viewBox="0 0 202.13 48.2"><title>logo-housejoy</title><g style="isolation:isolate"><path d="M198.58,24.65l.06.39a1.6,1.6,0,0,1-.33,0,.75.75,0,0,1-.37-.08.42.42,0,0,1-.19-.2,1.56,1.56,0,0,1-.05-.52V22.79h-.32v-.34h.32v-.64l.44-.26v.91h.44v.34h-.44v1.52a.75.75,0,0,0,0,.24.18.18,0,0,0,.08.09.3.3,0,0,0,.15,0Z" transform="translate(-0.4 -0.7)" fill="#fff"/><path d="M199,25V22.45h.39v.36a.93.93,0,0,1,.33-.31.91.91,0,0,1,.46-.12.86.86,0,0,1,.47.12.64.64,0,0,1,.26.33.93.93,0,0,1,.8-.45.79.79,0,0,1,.59.21.91.91,0,0,1,.21.66V25h-.44V23.41a1.21,1.21,0,0,0,0-.38.37.37,0,0,0-.15-.19.49.49,0,0,0-.26-.07.61.61,0,0,0-.45.18.8.8,0,0,0-.18.58V25h-.44V23.36a.74.74,0,0,0-.11-.44.41.41,0,0,0-.35-.15.64.64,0,0,0-.34.1.56.56,0,0,0-.23.29,1.62,1.62,0,0,0-.07.54V25Z" transform="translate(-0.4 -0.7)" fill="#fff"/></g><path d="M66.9,14.8h1.4l-2.1,9.4a9.31,9.31,0,0,1,1.9-1.7,6.63,6.63,0,0,1,1.9-.9,6.93,6.93,0,0,1,2-.3,5.27,5.27,0,0,1,2.3.4A3.18,3.18,0,0,1,75.8,23a3.23,3.23,0,0,1,.6,1.8v.6c0,.1-.1.4-.2.9L75,31.7c-.1.6-.2,1-.2,1.1a.52.52,0,0,0,.2.4.76.76,0,0,0,.5.2,2.54,2.54,0,0,0,.7-.2,4.88,4.88,0,0,0,1.2-.8l1.7,1.9a12.29,12.29,0,0,1-2.7,1.9,5.19,5.19,0,0,1-2.4.5,4,4,0,0,1-2.7-.9,3,3,0,0,1-1.1-2.2,10.4,10.4,0,0,1,.3-2.1l1-4.2a5,5,0,0,0,.2-1.5.91.91,0,0,0-.3-.7,1.14,1.14,0,0,0-.8-.3,3.15,3.15,0,0,0-2.2,1,10.14,10.14,0,0,0-2.7,3.7A31.24,31.24,0,0,0,64,34.1l-.5,2.1H58.9l3.9-17.5H60.5l.7-2.8A15.5,15.5,0,0,0,66.9,14.8Z" transform="translate(-0.4 -0.7)" fill="#fff"/><path d="M88.7,21.3A8,8,0,0,1,93.8,23a5.53,5.53,0,0,1,2,4.6,9.57,9.57,0,0,1-1.2,4.6,8.07,8.07,0,0,1-3.3,3.3,9,9,0,0,1-4.6,1.2,7.15,7.15,0,0,1-5.2-1.8,6.11,6.11,0,0,1-1.9-4.7,8.92,8.92,0,0,1,1.2-4.5,7.83,7.83,0,0,1,3.3-3.2A10.14,10.14,0,0,1,88.7,21.3Zm-.1,3a3,3,0,0,0-1.9.7,6.66,6.66,0,0,0-1.6,2.4,8,8,0,0,0-.7,3.4,3.28,3.28,0,0,0,.6,2.1,1.86,1.86,0,0,0,1.6.7,2.81,2.81,0,0,0,1.9-.7,6.16,6.16,0,0,0,1.6-2.3,8.42,8.42,0,0,0,.7-3.5,2.93,2.93,0,0,0-.6-2.1A2.18,2.18,0,0,0,88.6,24.3Z" transform="translate(-0.4 -0.7)" fill="#fff"/><path d="M115.3,21.7l-2.7,10.2a8.14,8.14,0,0,0-.2.9.69.69,0,0,0,.6.7,2.54,2.54,0,0,0,.7-.2,4.44,4.44,0,0,0,1.1-.8l1.6,1.9a7.17,7.17,0,0,1-5.1,2.4,3.66,3.66,0,0,1-2.5-.9,4.22,4.22,0,0,1-1.1-2.1,7.81,7.81,0,0,1-2.3,2.1,5.38,5.38,0,0,1-3.1.9,3.47,3.47,0,0,1-2.7-1,3.39,3.39,0,0,1-1-2.6,7.77,7.77,0,0,1,.2-1.6c0-.1.1-.3.1-.4l1.2-5.6H97l.7-2.8a18.65,18.65,0,0,0,3.2-.4,14,14,0,0,0,3.1-.9h1.5l-2.1,10c-.1.5-.2.9-.2,1a.86.86,0,0,0,.3.6.84.84,0,0,0,.7.2,2.66,2.66,0,0,0,1.3-.5,5.06,5.06,0,0,0,1.8-2,11.89,11.89,0,0,0,1.5-3.2,19.87,19.87,0,0,0,.8-2.5.9.9,0,0,1,.1-.5l.8-2.9Z" transform="translate(-0.4 -0.7)" fill="#fff"/><path d="M126.8,21.3a12.86,12.86,0,0,1,3.5.5,4.13,4.13,0,0,1,2.2,1.3,2.19,2.19,0,0,1,.1,2.9,1.62,1.62,0,0,1-1.4.5,2.2,2.2,0,0,1-.8-.1,4.88,4.88,0,0,1-.7-.3,3.78,3.78,0,0,1-.8-.7c-.4-.4-.7-.6-.8-.7a2.39,2.39,0,0,0-.9-.3,3.75,3.75,0,0,0-1.1-.1,2.21,2.21,0,0,0-1.4.3,1.23,1.23,0,0,0-.4.8.85.85,0,0,0,.2.6,3.58,3.58,0,0,0,1.1.6,29.22,29.22,0,0,1,4.1,1.6,5.75,5.75,0,0,1,1.9,1.5,3.38,3.38,0,0,1,.6,2,4,4,0,0,1-.9,2.5,6.16,6.16,0,0,1-2.5,1.9,9.74,9.74,0,0,1-4.1.7,10.47,10.47,0,0,1-5.7-1.3,2.86,2.86,0,0,1-1.6-2.4,2,2,0,0,1,.6-1.4,1.82,1.82,0,0,1,1.4-.6,1.7,1.7,0,0,1,.7.1,2.51,2.51,0,0,1,.7.4,5.72,5.72,0,0,1,.8.8,4.51,4.51,0,0,0,.7.7,5.62,5.62,0,0,0,1.3.7,6.05,6.05,0,0,0,1.5.2,3.42,3.42,0,0,0,1.7-.3c.5-.3.7-.6.7-1a1.05,1.05,0,0,0-.5-.9,18.34,18.34,0,0,0-2.7-1,9.51,9.51,0,0,1-3.7-2,3.54,3.54,0,0,1-1-2.6,4.58,4.58,0,0,1,.8-2.4,5.82,5.82,0,0,1,2.4-1.8A11.92,11.92,0,0,1,126.8,21.3Z" transform="translate(-0.4 -0.7)" fill="#fff"/><path d="M147.2,31.1l1.9,2.1a13.13,13.13,0,0,1-4.1,2.7,11,11,0,0,1-4,.8,7,7,0,0,1-4.4-1.2,6.16,6.16,0,0,1-2.5-5,7.58,7.58,0,0,1,1.3-4.4,10.47,10.47,0,0,1,3.8-3.4,11.33,11.33,0,0,1,5.4-1.3,5.63,5.63,0,0,1,3.7,1.1,3.17,3.17,0,0,1,1.3,2.6,4.14,4.14,0,0,1-.5,1.9,5.81,5.81,0,0,1-1.7,1.8A10.2,10.2,0,0,1,144,30a24.37,24.37,0,0,1-4.8.5v.4a2.73,2.73,0,0,0,2.8,2.8,5.61,5.61,0,0,0,2.3-.6A18.17,18.17,0,0,0,147.2,31.1Zm-7.3-3.4a23.94,23.94,0,0,0,3.6-.5,5,5,0,0,0,1.8-1,1.28,1.28,0,0,0,.4-1,.91.91,0,0,0-.4-.8,1.49,1.49,0,0,0-1-.3,3.43,3.43,0,0,0-1.6.4,4.43,4.43,0,0,0-1.5,1.2A4.64,4.64,0,0,0,139.9,27.7Z" transform="translate(-0.4 -0.7)" fill="#fff"/><path d="M159.3,21.3l-3.6,15.9a12.43,12.43,0,0,1-.6,2,6.25,6.25,0,0,1-1.3,2,6.92,6.92,0,0,1-2.2,1.4,9.43,9.43,0,0,1-3,.5,4.4,4.4,0,0,1-3.2-1,2.17,2.17,0,0,1-.8-1.8,2,2,0,0,1,.3-1.1,1.58,1.58,0,0,1,.7-.7,1.93,1.93,0,0,1,1-.3,2,2,0,0,1,.7.1,1.61,1.61,0,0,1,.7.4l.7.7c.3.3.5.5.5.6a.6.6,0,0,0,.4.1.91.91,0,0,0,.8-.4,5.35,5.35,0,0,0,.6-1.6l2.8-12.6h-1.9l.6-2.8a11.34,11.34,0,0,0,2.5-.3,24.32,24.32,0,0,0,3-.9h1.3Zm-.8-6.5a2.4,2.4,0,0,1,2.5,2.5,2.3,2.3,0,0,1-.4,1.4,2.91,2.91,0,0,1-1.1,1.1,2.82,2.82,0,0,1-1.5.4,2.06,2.06,0,0,1-1.7-.7,2.34,2.34,0,0,1-.7-1.7,3.18,3.18,0,0,1,.8-2A2.66,2.66,0,0,1,158.5,14.8Z" transform="translate(-0.4 -0.7)" fill="#fff"/><path d="M169.9,21.3A8,8,0,0,1,175,23a5.53,5.53,0,0,1,2,4.6,9.57,9.57,0,0,1-1.2,4.6,8.07,8.07,0,0,1-3.3,3.3,9,9,0,0,1-4.6,1.2,7.15,7.15,0,0,1-5.2-1.8,6.11,6.11,0,0,1-1.9-4.7,8.92,8.92,0,0,1,1.2-4.5,7.83,7.83,0,0,1,3.3-3.2A10.14,10.14,0,0,1,169.9,21.3Zm-.1,3a3,3,0,0,0-1.9.7,6.66,6.66,0,0,0-1.6,2.4,8,8,0,0,0-.7,3.4,3.28,3.28,0,0,0,.6,2.1,1.86,1.86,0,0,0,1.6.7,2.81,2.81,0,0,0,1.9-.7,6.16,6.16,0,0,0,1.6-2.3,8.42,8.42,0,0,0,.7-3.5,2.93,2.93,0,0,0-.6-2.1A2.18,2.18,0,0,0,169.8,24.3Z" transform="translate(-0.4 -0.7)" fill="#fff"/><path d="M182.2,25.4H179l.8-2.8a20.24,20.24,0,0,0,6.3-1.3h1.6L185.5,31a4.86,4.86,0,0,0-.2,1.4.86.86,0,0,0,.3.6,1.55,1.55,0,0,0,.8.2,1.94,1.94,0,0,0,1.3-.6,9.36,9.36,0,0,0,2-2.6,16.26,16.26,0,0,0,1.4-4.4l.9-3.8h4.7l-3.2,13.5a10.15,10.15,0,0,1-3.4,5.8,11.21,11.21,0,0,1-7,2.1,7.9,7.9,0,0,1-4.5-1,2.81,2.81,0,0,1-1.5-2.3,1.8,1.8,0,0,1,.7-1.5,2.32,2.32,0,0,1,2.7-.3c.3.1.6.5,1,1a4.7,4.7,0,0,0,1.1,1,2.77,2.77,0,0,0,1.3.3,3.53,3.53,0,0,0,1.7-.4,5.72,5.72,0,0,0,1.6-1.1,5.23,5.23,0,0,0,1.2-1.7,11.5,11.5,0,0,0,.8-2.6,9.16,9.16,0,0,1-1.4,1.4,4.13,4.13,0,0,1-1.5.7,5.23,5.23,0,0,1-1.8.3,4,4,0,0,1-2-.4,3.25,3.25,0,0,1-1.3-1.3,3.69,3.69,0,0,1-.5-1.7,10.4,10.4,0,0,1,.3-2.1Z" transform="translate(-0.4 -0.7)" fill="#fff"/><circle cx="24.1" cy="24.1" r="24.1" fill="#f04c36"/><path d="M24.4,35.6h-.6c-4.1-.3-6.5-3.9-6.7-4a2,2,0,0,1,3.3-2.3A5.46,5.46,0,0,0,24,31.6c1.5.1,3.1-.7,4.7-2.5a2.05,2.05,0,0,1,3,2.8C29.5,34.3,27,35.6,24.4,35.6Z" transform="translate(-0.4 -0.7)" fill="#fff"/><path d="M9,30.4a2.05,2.05,0,0,1-1.2-3.7L23.4,14.8a2.07,2.07,0,0,1,2.5,3.3L10.3,30A2.2,2.2,0,0,1,9,30.4Z" transform="translate(-0.4 -0.7)" fill="#fff"/><path d="M40.2,30.4A1.75,1.75,0,0,1,39,30L23.4,18.1a2.07,2.07,0,0,1,2.5-3.3L41.5,26.7a2.07,2.07,0,0,1,.4,2.9A2.11,2.11,0,0,1,40.2,30.4Z" transform="translate(-0.4 -0.7)" fill="#fff"/><path d="M13.5,27a2,2,0,0,1-2-2V18.2a2,2,0,0,1,4,0V25A2,2,0,0,1,13.5,27Z" transform="translate(-0.4 -0.7)" fill="#fff"/></svg>